<svg height="512" viewBox="0 0 64 64" width="512" xmlns="http://www.w3.org/2000/svg"><path d="m23 45-8 16h16z" fill="#4891d3"/><g fill="#57b7eb"><path d="m39.43 39.54h28.69v2h-28.69z" transform="matrix(.358 -.934 .934 .358 -3.32 76.26)"/><path d="m31.23 26.2h2v28.69h-2z" transform="matrix(.934 -.358 .358 .934 -12.37 14.22)"/><path d="m36 42h2v12h-2z"/><path d="m48 42h2v12h-2z"/></g><path d="m61 21a18 18 0 1 0 -25 16.59v5.41h14v-5.41a18 18 0 0 0 11-16.59z" fill="#f89c8d"/><path d="m52 33a20 20 0 0 1 -18.65-27.18 18 18 0 0 0 2.65 31.77v5.41h14v-5.41a18.21 18.21 0 0 0 7-5.23 20.31 20.31 0 0 1 -5 .64z" fill="#f8664f"/><path d="m55 21c0-9.94-5.37-18-12-18s-12 8.06-12 18c0 8.38 3.83 15.41 9 17.41v4.59h6v-4.59c5.17-2 9-9.03 9-17.41z" fill="#aae1f9"/><path d="m32 13.71a25.38 25.38 0 0 0 -1 7.29c0 8.38 3.83 15.41 9 17.41v4.59h6v-4.59a12.49 12.49 0 0 0 5.93-5.41 20 20 0 0 1 -19.93-19.29z" fill="#57b7eb"/><path d="m36 53h14a0 0 0 0 1 0 0v6a2 2 0 0 1 -2 2h-10a2 2 0 0 1 -2-2v-6a0 0 0 0 1 0 0z" fill="#a1d51c"/><path d="m45 51a2 2 0 0 1 -4 0c0-1.1.9-4 2-4s2 2.9 2 4z" fill="#f89c8d"/><ellipse cx="43" cy="21" fill="#f89c8d" rx="6" ry="18"/><path d="m37.29 26.52c.78 7.24 3.04 12.48 5.71 12.48 1.86 0 3.51-2.53 4.61-6.5a20 20 0 0 1 -10.32-5.98z" fill="#f8664f"/><path d="m39 53h11a0 0 0 0 1 0 0v4a0 0 0 0 1 0 0h-7a4 4 0 0 1 -4-4 0 0 0 0 1 0 0z" fill="#c4f236"/><path d="m44 51a2 2 0 0 1 -2-2 6.12 6.12 0 0 1 .3-1.61 6.86 6.86 0 0 0 -1.3 3.61 2 2 0 0 0 4 0c0-.08 0-.17 0-.27a1.92 1.92 0 0 1 -1 .27z" fill="#f8664f"/><path d="m47 60.13-10.5-6a1 1 0 0 0 -.5-.13v2.13l8.48 4.87h3a1 1 0 0 0 -.48-.87z" fill="#57b7eb"/><path d="m50 57.28-7.48-4.28h-3a1 1 0 0 0 .48.87l9.5 5.43a1 1 0 0 0 .45.12 1.86 1.86 0 0 0 .05-.42z" fill="#57b7eb"/><path d="m40 53.87 5.48 3.13h4l-7-4h-3a1 1 0 0 0 .52.87z" fill="#7fcaf3"/><path d="m13 41-10 20h20z" fill="#57b7eb"/><path d="m13 41-4.1 8.2 2.1 1.8 2 5 4.04-6.92z" fill="#aae1f9"/><path d="m23 53 2-4-2-4-2 4z" fill="#7fcaf3"/><path d="m21 30a3.17 3.17 0 0 0 -.53.05 4 4 0 0 0 -3.47-2.05 4 4 0 0 0 -3.89 3.09 2 2 0 0 0 -.61-.09 2.5 2.5 0 0 0 0 5 2.45 2.45 0 0 0 1.94-1 3.94 3.94 0 0 0 4.72.31 3 3 0 1 0 1.84-5.31z" fill="#aae1f9"/><path d="m9 19a3 3 0 0 0 -2.92 2.32 2 2 0 1 0 .66 2.68 3 3 0 1 0 2.26-5z" fill="#aae1f9"/><path d="m22 34a3 3 0 0 1 -1.84-.64 3.94 3.94 0 0 1 -4.72-.31 2.45 2.45 0 0 1 -1.94 1 2.5 2.5 0 0 1 -2.5-2.54 2.49 2.49 0 0 0 1.5 4.49 2.45 2.45 0 0 0 1.94-1 3.94 3.94 0 0 0 4.72.31 3 3 0 0 0 4.84-2.07 3 3 0 0 1 -2 .76z" fill="#7fcaf3"/><path d="m10 23a3 3 0 0 1 -2.26-1 2 2 0 0 1 -1.74 1 2 2 0 0 1 -2-1.74 2 2 0 0 0 1 3.74 2 2 0 0 0 1.74-1 3 3 0 0 0 5.26-1.76 3 3 0 0 1 -2 .76z" fill="#7fcaf3"/></svg>