<svg id="_x33_0" enable-background="new 0 0 64 64" height="512" viewBox="0 0 64 64" width="512" xmlns="http://www.w3.org/2000/svg"><g><g><g><path d="m53 18c-.34 0-.67.02-1 .05 0-.01 0-.03 0-.05 0-5.52-4.48-10-10-10-2.29 0-4.41.77-6.09 2.08l-.01-.01c-2.75-4.82-7.95-8.07-13.9-8.07-8.84 0-16 7.16-16 16 0 1.53.22 3.01.62 4.42-2.7.97-4.62 3.55-4.62 6.58 0 3.87 3.13 7 7 7h43.92.08c4.97 0 9-4.03 9-9s-4.03-9-9-9z" fill="#e6e9ed"/></g><g><path d="m56 28-3.08 8-1.92 5 4 1-10.54 19.16c-.28.52-.83.84-1.42.84-.91 0-1.61-.74-1.61-1.61 0-.13.01-.25.04-.38l3.53-15.01-5-2 2.78-6.96 3.22-8.04z" fill="#fcd770"/></g></g><g><path d="m63 27c0-5.514-4.486-10-10-10-.017 0-.034.003-.051.003-.506-5.599-5.22-10.003-10.949-10.003-2.127 0-4.108.617-5.792 1.666-3.131-4.753-8.479-7.666-14.208-7.666-9.374 0-17 7.626-17 17 0 1.3.155 2.588.445 3.844-2.63 1.312-4.445 4.023-4.445 7.156 0 4.411 3.589 8 8 8h32.323l-2.623 6.557 5.129 2.052-3.335 14.173c-.184.784-.003 1.595.497 2.226.5.63 1.248.992 2.052.992.955 0 1.834-.52 2.294-1.356l11.165-20.299-4.163-1.041 1.283-3.336c5.224-.323 9.378-4.664 9.378-9.968zm-30 8c-2.206 0-4-1.794-4-4s1.794-4 4-4 4 1.794 4 4h2c0-3.309-2.691-6-6-6s-6 2.691-6 6c0 1.538.586 2.937 1.54 4h-19.54c-3.309 0-6-2.691-6-6s2.691-6 6-6 6 2.691 6 6h2c0-4.411-3.589-8-8-8-.57 0-1.125.062-1.661.176-.224-1.039-.339-2.103-.339-3.176 0-8.271 6.729-15 15-15 5.099 0 9.855 2.618 12.607 6.878-2.21 2.014-3.607 4.904-3.607 8.122h2c0-4.962 4.038-9 9-9 4.683 0 8.538 3.596 8.958 8.217-2.239.464-4.264 1.677-5.736 3.497l1.555 1.258c1.528-1.889 3.796-2.972 6.223-2.972 4.411 0 8 3.589 8 8 0 3.902-2.81 7.156-6.566 7.856l3.022-7.856h-12.133l-3.2 8zm20.498 7.655-9.914 18.025c-.108.197-.315.32-.541.32-.26 0-.415-.147-.484-.234s-.177-.272-.117-.525l3.729-15.849-4.871-1.949 5.377-13.443h7.867l-4.883 12.696z"/><path d="m5.838 44h6.325v2h-6.325z" transform="matrix(.316 -.949 .949 .316 -36.536 39.301)"/><path d="m13.838 50h6.325v2h-6.325z" transform="matrix(.316 -.949 .949 .316 -36.759 50.992)"/><path d="m5.838 58h6.325v2h-6.325z" transform="matrix(.316 -.949 .949 .316 -49.817 48.872)"/><path d="m22.838 42h6.325v2h-6.325z" transform="matrix(.316 -.949 .949 .316 -23.017 54.06)"/><path d="m23.838 55h6.325v2h-6.325z" transform="matrix(.316 -.949 .949 .316 -34.666 63.896)"/><path d="m33.838 49h6.325v2h-6.325z" transform="matrix(.316 -.949 .949 .316 -22.138 69.281)"/></g></g></svg>